<?xml version="1.0" encoding="iso-8859-1"?>
<!-- Generator: Adobe Illustrator 18.1.1, SVG Export Plug-In . SVG Version: 6.00 Build 0)  -->
<svg version="1.1" id="Capa_1" xmlns="http://www.w3.org/2000/svg" xmlns:xlink="http://www.w3.org/1999/xlink" x="0px" y="0px"
	 viewBox="0 0 85 85" style="enable-background:new 0 0 85 85;" xml:space="preserve">
<g>
	<g>
		<path style="fill:#030104;" d="M71.5,30h-9v-7c0-14.486-6.673-23-20-23s-20,8.514-20,23v7h-10c-2.762,0-5,3.238-5,6v39
			c0,2.75,2.142,5.691,4.759,6.535l5.982,1.93C20.858,84.31,25.25,85,28,85h29c2.75,0,7.142-0.69,9.759-1.535l5.982-1.93
			C75.358,80.691,77.5,77.75,77.5,75V36C77.5,33.238,74.262,30,71.5,30z M32.5,21c0-7.225,3.986-11,10-11s10,3.775,10,11v9h-20V21z"
			/>
	</g>
</g>
<g>
</g>
<g>
</g>
<g>
</g>
<g>
</g>
<g>
</g>
<g>
</g>
<g>
</g>
<g>
</g>
<g>
</g>
<g>
</g>
<g>
</g>
<g>
</g>
<g>
</g>
<g>
</g>
<g>
</g>
</svg>
