<?xml version="1.0" encoding="utf-8"?>
<!-- Generator: Adobe Illustrator 16.0.0, SVG Export Plug-In . SVG Version: 6.00 Build 0)  -->
<!DOCTYPE svg PUBLIC "-//W3C//DTD SVG 1.1//EN" "http://www.w3.org/Graphics/SVG/1.1/DTD/svg11.dtd">
<svg version="1.1" id="Layer_1" xmlns="http://www.w3.org/2000/svg" xmlns:xlink="http://www.w3.org/1999/xlink" x="0px" y="0px"
	 width="2013.894px" height="778.667px" viewBox="0 0 2013.894 778.667" enable-background="new 0 0 2013.894 778.667"
	 xml:space="preserve">
<g>
	<path fill="#FFFFFF" d="M491.424,528.629c-55.488,111.732-128.445,173.283-256.898,173.283
		c-87.404,0-147.457-50.152-147.457-123.117c0-178.629,281.223-214.346,281.223-66.881c0,50.17-46.361,97.281-112.475,97.281
		c-12.936,0-11.404-12.932-3.053-15.961c55.49-17.494,69.166-138.334-3.797-138.334c-93.488,0-133.771,205.215,2.277,205.215
		c50.16,0,88.936-28.119,129.211-96.523c15.203-25.848,60.812-122.379,95.008-199.143c19.002-44.076,44.846-86.631,72.213-111.729
		c-87.406-17.469-187.744,25.098-187.744,89.686c0,16.734,7.596,31.174,19.002,34.207c35.729,10.654,51.689-29.637,40.281-53.967
		c-5.318-12.154,6.844-20.525,15.969-12.154c49.395,45.602,0,133.012-82.848,119.324c-112.486-19.002-88.93-206.732,162.645-206.732
		c20.531,0,44.859,3.043,65.371,6.082C642.68,182.811,717.16,185.834,748.328,217c9.121,9.127-1.527,22.049-12.926,15.975
		c-25.074-13.697-62.311-14.451-91.967,12.902C825.854,308.975,727.803,549.145,491.424,528.629z M619.883,272.489
		c-12.92,15.195-25.852,40.277-38.008,63.09c-12.932,25.07-48.654,99.559-76.004,161.125
		C645.723,496.704,704.252,305.938,619.883,272.489z"/>
	<path fill="#FFFFFF" d="M1012.059,371.288c9.113,0,12.916,6.104,7.592,15.98c-5.322,11.383-82.846,160.354-91.971,179.361
		c-11.393,23.566-28.875,72.209-8.365,72.209c40.285,0,106.42-104.898,111.742-114.016c3.795-6.078,11.402-8.359,17.473-6.078
		c6.084,3.049,8.357,9.125,3.809,16.719c-4.568,9.129-85.133,161.146-171.021,161.146c-29.646,0-50.16-15.965-55.484-44.09
		c-28.877,26.602-60.816,44.848-94.246,44.848c-62.326,0-104.137-63.855-56.244-170.266
		c34.965-78.291,116.289-161.119,194.578-161.119c34.197,0,52.439,15.184,60.801,37.994c6.844-12.162,11.396-20.518,12.922-22.035
		c4.568-6.838,11.406-10.654,19.006-10.654H1012.059z M869.92,524.823c30.395-66.879,38.01-111.715,5.316-111.715
		c-32.689,0-75.998,50.154-104.129,111.715c-28.881,61.576-36.49,111.736-3.803,111.736
		C799.996,636.559,834.193,600.834,869.92,524.823z"/>
	<path fill="#FFFFFF" d="M1061.441,696.61c-26.607-2.289-69.92-20.523-69.92-85.893c0-136.803,131.49-376.238,256.133-376.238
		c28.891,0,51.697,21.281,39.529,75.26c-29.645,127.67-129.98,229.533-208.25,264.498c-6.857,22.785-14.451,65.357,31.148,65.357
		c65.363,0,126.938-82.086,145.166-111.725c9.129-14.438,28.893-5.318,21.297,9.111
		C1276.545,536.981,1186.85,708.006,1061.441,696.61z M1244.604,303.651c1.531-9.121-1.512-11.404-9.113-6.84
		c-37.234,22.057-116.289,136.043-148.205,236.377C1182.299,473.915,1236.258,358.375,1244.604,303.651z"/>
	<path fill="#FFFFFF" d="M1322.143,636.559c53.957,13.688,119.322-26.602,168.725-117.814c3.043-5.312,8.365-8.361,15.205-6.07
		c7.602,3.031,8.357,10.643,5.32,16.705c-47.129,99.578-134.539,175.584-227.252,167.23c-70.689-5.332-101.859-74.49-66.898-164.941
		c34.205-91.213,120.086-165.686,190.783-165.686c47.875,0,67.639,33.443,63.85,68.398c-2.281,20.52-13.689,53.197-51.689,80.566
		c-51.689,37.246-104.125,46.369-121.615,47.887C1288.689,603.866,1297.809,630.489,1322.143,636.559z M1408.025,466.303
		c11.406-14.439,15.959-26.613,15.959-34.963c0-15.197-12.922-19.008-31.924-6.836c-28.125,18.234-61.566,53.963-81.326,98.047
		c-1.52,2.271-2.279,4.551-3.053,6.078C1328.979,522.551,1376.1,508.102,1408.025,466.303z"/>
	<path fill="#FFFFFF" d="M1683.139,393.34c-3.795,9.113-9.113,14.436-26.592,16.709c-12.922,1.523-27.367,2.283-41.799,2.283
		c-32.691,62.328-79.053,153.535-79.053,153.535c-22.045,46.369-12.16,69.168,13.686,69.168
		c44.846,0,100.322-76.764,120.844-110.973c8.359-13.68,29.645-4.561,22.047,11.4c-4.568,9.129-90.449,160.383-183.936,160.383
		c-62.318,0-99.568-51.703-41.805-163.412l62.322-119.326h-13.682c-14.439,0-15.201-11.41-11.398-18.246l6.846-13.695
		c3.031-6.062,9.879-9.879,18.234-9.879h22.801l44.09-82.074c3.793-7.598,11.4-10.637,19.004-10.637h50.918
		c10.639,0,14.445,4.545,9.125,15.193l-38.773,77.518h40.287c9.121,0,12.164,6.854,9.121,15.98L1683.139,393.34z"/>
	<path fill="#FFFFFF" d="M1971.209,371.288c9.123,0,12.922,6.104,7.594,15.98c-5.322,11.383-82.842,160.354-91.965,179.361
		c-11.404,23.566-28.879,72.209-8.355,72.209c40.277,0,106.41-104.898,111.727-114.016c3.799-6.078,11.395-8.359,17.488-6.078
		c6.068,3.049,8.35,9.125,3.785,16.719c-4.562,9.129-85.119,161.146-171.002,161.146c-29.643,0-50.162-15.965-55.488-44.09
		c-28.881,26.602-60.809,44.848-94.25,44.848c-62.326,0-104.133-63.855-56.24-170.266
		c34.961-78.291,116.287-161.119,194.572-161.119c34.205,0,52.439,15.184,60.803,37.994c6.84-12.162,11.402-20.518,12.93-22.035
		c4.568-6.838,11.398-10.654,18.996-10.654H1971.209z M1829.074,524.823c30.404-66.879,38.01-111.715,5.328-111.715
		c-32.691,0-76.02,50.154-104.137,111.715c-28.883,61.576-36.482,111.736-3.793,111.736
		C1759.148,636.559,1793.352,600.834,1829.074,524.823z"/>
</g>
<path fill="#FFFFFF" d="M874.452,147.937l4.127,25.92c-6.18,2.741-17.871,5.231-31.163,5.231c-36.202,0-59.359-22.208-59.359-57.499
	c0-32.774,22.435-59.585,64.185-59.585c9.178,0,19.256,1.591,26.585,4.342l-5.501,25.907c-4.104-1.848-10.328-3.438-19.482-3.438
	c-18.333,0-30.261,13.033-30.036,31.387c0,20.633,13.756,31.412,30.733,31.412C862.771,151.614,869.221,150.227,874.452,147.937z
	 M988.831,119.278c0,41.039-29.099,59.811-59.135,59.811c-32.764,0-57.973-21.534-57.973-57.725
	c0-36.224,23.834-59.359,59.822-59.359C965.921,62.004,988.831,85.601,988.831,119.278z M952.854,120.417
	c0-16.708-6.403-33.666-22.209-33.666c-16.743,0-22.956,17.161-22.956,33.666c0,19.269,8.051,33.7,22.956,33.7
	C944.151,154.118,952.854,140.587,952.854,120.417z M993.173,176.598h34.849V13.863h-34.849V176.598z M1149.728,119.278
	c0,41.039-29.109,59.811-59.122,59.811c-32.764,0-57.995-21.534-57.995-57.725c0-36.224,23.833-59.359,59.844-59.359
	C1126.796,62.004,1149.728,85.601,1149.728,119.278z M1113.739,120.417c0-16.708-6.402-33.666-22.231-33.666
	c-16.721,0-22.897,17.161-22.897,33.666c0,19.269,8.005,33.7,22.897,33.7C1105.036,154.118,1113.739,140.587,1113.739,120.417z
	 M1311.517,148.377l4.622,23.62c-11.478,4.601-25.458,7.091-40.61,7.091c-38.018,0-59.799-22.208-59.799-57.286
	c0-8.962,1.781-18.274,5.411-26.774c-2.143-0.44-4.646-0.723-7.711-0.723c-12.809,0-21.534,6.878-23.857,17.646
	c-0.429,2.288-0.665,5.039-0.665,7.813v56.834h-34.827v-75.177c0-16.509-0.45-27.285-0.924-36.913h30.034l1.15,20.632h0.902
	c5.727-16.281,19.482-23.136,30.283-23.136c3.191,0,4.779,0,7.305,0.463v28.998c8.469-16.676,24.625-29.461,49.529-29.461
	c36.203,0,49.934,28.186,49.934,55.921c0,5.931-0.676,11.208-1.149,13.721h-72.179c1.127,14.455,15.379,21.33,31.625,21.33
	C1292.53,152.976,1302.136,151.355,1311.517,148.377z M1248.752,107.847h41.23c0-8.491-3.653-22.707-19.708-22.707
	C1255.595,85.14,1249.643,98.42,1248.752,107.847z M1373.862,108.072c-13.752-4.871-18.094-7.576-18.094-12.863
	c0-5.683,4.826-9.154,13.293-9.154c9.629,0,19.234,3.641,24.285,6.426l6.201-24.07c-6.865-3.45-18.558-6.405-31.613-6.405
	c-27.747,0-45.641,15.796-45.641,36.891c-0.202,13.056,8.727,25.66,31.885,33.462c13.068,4.354,16.484,7.091,16.484,12.809
	c0,5.738-4.354,9.39-14.895,9.39c-10.316,0-23.621-4.555-30.035-8.454l-6.167,24.983c8.456,4.567,21.546,8.004,36.202,8.004
	c32.075,0,48.582-15.58,48.582-36.415C1404.102,126.156,1395.185,115.389,1373.862,108.072z M1534.592,117.925
	c0,5.931-0.698,11.208-1.149,13.721h-72.201c1.15,14.455,15.377,21.33,31.635,21.33c11.93,0,21.535-1.621,30.939-4.599l4.588,23.62
	c-11.467,4.601-25.424,7.091-40.577,7.091c-38.052,0-59.799-22.208-59.799-57.286c0-28.433,17.632-59.798,56.586-59.798
	C1520.837,62.004,1534.592,90.19,1534.592,117.925z M1502.269,107.847c0-8.491-3.664-22.707-19.719-22.707
	c-14.646,0-20.609,13.28-21.533,22.707H1502.269z M1603.039,62.004c-18.567,0-30.034,10.745-34.636,17.87h-0.664l-1.6-15.366
	h-30.262c0.451,9.864,0.451-4.125,0.451,9.864l0.451,102.226h34.859v-64.647c0-3.18,0.441-6.428,1.365-8.75
	c2.287-6.357,8.016-13.011,17.645-13.011c12.615,0,17.645,9.844,17.645,24.297v62.111h34.849v-66.497
	C1643.143,77.091,1625.961,62.004,1603.039,62.004z"/>
</svg>
