<?xml version="1.0" encoding="iso-8859-1"?>
<!-- Generator: Adobe Illustrator 16.0.0, SVG Export Plug-In . SVG Version: 6.00 Build 0)  -->
<!DOCTYPE svg PUBLIC "-//W3C//DTD SVG 1.1//EN" "http://www.w3.org/Graphics/SVG/1.1/DTD/svg11.dtd">
<svg xmlns="http://www.w3.org/2000/svg" xmlns:xlink="http://www.w3.org/1999/xlink" version="1.1" id="Capa_1" x="0px" y="0px" width="512px" height="512px" viewBox="0 0 30.254 30.254" style="enable-background:new 0 0 30.254 30.254;" xml:space="preserve">
<g>
	<g>
		<path d="M8.319,8.487c2.065,0,3.743-1.676,3.743-3.743C12.062,2.676,10.384,1,8.319,1S4.576,2.676,4.576,4.744    C4.576,6.811,6.254,8.487,8.319,8.487z" fill="#ee5533"/>
		<polygon points="10.782,17.918 10.782,17.918 8.656,22.377 8.656,22.377 8.377,22.961 4.598,22.961 1.973,12.463 0.097,12.932     3.088,24.895 4.601,24.895 2.66,29.17 3.833,29.704 6.016,24.895 9.219,24.895 11.317,29.695 12.497,29.18 10.625,24.895     11.985,24.895 11.985,22.961 9.622,22.961 11.907,18.167 18.407,18.167 18.407,17.042 11.198,17.042   " fill="#ee5533"/>
		<polygon points="5.535,9.65 4.903,22.377 7.056,22.377 7.942,22.377 10.616,16.766 10.782,16.418 11.104,12.192 15.998,7.597     15.998,5.461 10.776,9.693   " fill="#ee5533"/>
		<polygon points="13.969,19.757 11.863,19.757 10.615,22.377 10.782,22.377 13.969,22.377 13.969,30.254 17.338,30.254     17.338,19.757 17.069,19.757   " fill="#ee5533"/>
		<path d="M23.989,0c-3.404,0-6.166,1.862-6.166,4.159c0,1.408,1.039,2.649,2.627,3.402l-1.104,1.926c0,0,3.535-0.545,5.979-1.269    c2.443-0.724,4.832-2.071,4.832-4.059C30.157,1.862,27.396,0,23.989,0z M24.716,6.61h-1.501V5.18h1.501V6.61z M25.938,3.356    c-0.059,0.138-0.135,0.251-0.228,0.343c-0.094,0.092-0.199,0.167-0.314,0.227c-0.115,0.061-0.234,0.122-0.354,0.184    c-0.084,0.044-0.149,0.087-0.202,0.13c-0.054,0.043-0.095,0.089-0.124,0.138c-0.028,0.048-0.049,0.104-0.062,0.166    c-0.011,0.063-0.018,0.135-0.018,0.217H23.3c-0.004-0.072-0.008-0.164-0.008-0.274c0-0.115,0.016-0.234,0.045-0.354    c0.029-0.12,0.078-0.238,0.15-0.354c0.071-0.115,0.178-0.212,0.316-0.289c0.059-0.029,0.126-0.06,0.203-0.094    c0.076-0.033,0.15-0.071,0.22-0.111c0.069-0.042,0.129-0.091,0.179-0.149c0.047-0.057,0.071-0.127,0.071-0.209    c0-0.246-0.142-0.368-0.419-0.368c-0.174,0-0.296,0.062-0.369,0.188c-0.07,0.125-0.101,0.268-0.087,0.426h-1.509    c0.016-0.227,0.061-0.449,0.138-0.668c0.077-0.219,0.194-0.416,0.354-0.589c0.158-0.173,0.361-0.314,0.609-0.423    c0.248-0.108,0.551-0.163,0.906-0.163c0.352,0,0.646,0.047,0.891,0.142c0.238,0.094,0.435,0.214,0.584,0.36    c0.148,0.148,0.258,0.309,0.328,0.484c0.068,0.176,0.109,0.344,0.119,0.502C26.024,3.039,25.995,3.219,25.938,3.356z" fill="#ee5533"/>
	</g>
</g>
<g>
</g>
<g>
</g>
<g>
</g>
<g>
</g>
<g>
</g>
<g>
</g>
<g>
</g>
<g>
</g>
<g>
</g>
<g>
</g>
<g>
</g>
<g>
</g>
<g>
</g>
<g>
</g>
<g>
</g>
</svg>
