<?xml version="1.0" encoding="UTF-8"?>
<!DOCTYPE svg PUBLIC "-//W3C//DTD SVG 1.1//EN" "http://www.w3.org/Graphics/SVG/1.1/DTD/svg11.dtd">
<!-- Creator: CorelDRAW X6 -->
<svg xmlns="http://www.w3.org/2000/svg" xml:space="preserve" width="27.0556in" height="7.2172in" version="1.1" style="shape-rendering:geometricPrecision; text-rendering:geometricPrecision; image-rendering:optimizeQuality; fill-rule:evenodd; clip-rule:evenodd"
viewBox="0 0 27056 7217"
 xmlns:xlink="http://www.w3.org/1999/xlink">
 <defs>
  <style type="text/css">
   <![CDATA[
    .fil0 {fill:#FEFEFE;fill-rule:nonzero}
   ]]>
  </style>
 </defs>
 <g id="Capa_x0020_1">
  <metadata id="CorelCorpID_0Corel-Layer"/>
  <path class="fil0" d="M5806 4810c-771,1552 -1784,2407 -3568,2407 -1214,0 -2048,-697 -2048,-1710 0,-2481 3906,-2977 3906,-929 0,697 -644,1351 -1562,1351 -180,0 -158,-180 -42,-222 771,-243 961,-1921 -53,-1921 -1298,0 -1858,2850 32,2850 697,0 1235,-391 1795,-1341 211,-359 845,-1700 1320,-2766 264,-612 623,-1203 1003,-1552 -1214,-243 -2608,349 -2608,1246 0,232 105,433 264,475 496,148 718,-412 559,-750 -74,-169 95,-285 222,-169 686,633 0,1847 -1151,1657 -1562,-264 -1235,-2871 2259,-2871 285,0 623,42 908,84 866,-644 1900,-602 2333,-169 127,127 -21,306 -180,222 -348,-190 -865,-201 -1277,179 2534,876 1172,4212 -2111,3927zm1784 -3558l0 0c-179,211 -359,559 -528,876 -180,348 -676,1383 -1056,2238 1942,0 2755,-2650 1583,-3114z"/>
  <path class="fil0" d="M13037 2625c127,0 179,85 105,222 -74,158 -1151,2227 -1277,2491 -158,327 -401,1003 -116,1003 560,0 1478,-1457 1552,-1584 53,-84 158,-116 243,-84 85,42 116,127 53,232 -63,127 -1182,2238 -2375,2238 -412,0 -697,-222 -771,-612 -401,369 -845,623 -1309,623 -866,0 -1446,-887 -781,-2365 486,-1087 1615,-2238 2702,-2238 475,0 728,211 844,528 95,-169 158,-285 179,-306 63,-95 158,-148 264,-148l686 0zm-1974 2132l0 0c422,-929 528,-1552 74,-1552 -454,0 -1056,697 -1446,1552 -401,855 -507,1552 -53,1552 454,0 929,-496 1425,-1552z"/>
  <path class="fil0" d="M13722 7144c-370,-32 -971,-285 -971,-1193 0,-1900 1826,-5226 3557,-5226 401,0 718,296 549,1045 -412,1773 -1805,3188 -2892,3674 -95,316 -201,908 433,908 908,0 1763,-1140 2016,-1552 127,-201 401,-74 296,127 0,0 -1246,2375 -2988,2217zm2544 -5458l0 0c21,-127 -21,-158 -127,-95 -517,306 -1615,1889 -2058,3283 1320,-823 2069,-2428 2185,-3188z"/>
  <path class="fil0" d="M17343 6310c749,190 1657,-369 2343,-1636 42,-74 116,-116 211,-84 106,42 116,148 74,232 -655,1383 -1869,2439 -3156,2323 -982,-74 -1415,-1035 -929,-2291 475,-1267 1668,-2301 2650,-2301 665,0 939,464 887,950 -32,285 -190,739 -718,1119 -718,517 -1446,644 -1689,665 -137,570 -11,940 327,1024zm1193 -2365l0 0c158,-201 222,-370 222,-486 0,-211 -179,-264 -443,-95 -391,253 -855,749 -1130,1362 -21,32 -32,63 -42,84 296,-84 950,-285 1394,-866z"/>
  <path class="fil0" d="M22357 2931c-53,127 -127,200 -369,232 -179,21 -380,32 -581,32 -454,866 -1098,2132 -1098,2132 -306,644 -169,961 190,961 623,0 1393,-1066 1678,-1541 116,-190 412,-63 306,158 -63,127 -1256,2228 -2555,2228 -866,0 -1383,-718 -581,-2270l866 -1657 -190 0c-201,0 -211,-158 -158,-253l95 -190c42,-84 137,-137 253,-137l317 0 612 -1140c53,-106 158,-148 264,-148l707 0c148,0 201,63 127,211l-539 1077 560 0c127,0 169,95 127,222l-32 84z"/>
  <path class="fil0" d="M26358 2625c127,0 179,85 105,222 -74,158 -1151,2227 -1277,2491 -158,327 -401,1003 -116,1003 559,0 1478,-1457 1552,-1584 53,-84 158,-116 243,-84 84,42 116,127 53,232 -63,127 -1182,2238 -2375,2238 -412,0 -697,-222 -771,-612 -401,369 -845,623 -1309,623 -866,0 -1446,-887 -781,-2365 486,-1087 1615,-2238 2702,-2238 475,0 728,211 844,528 95,-169 158,-285 180,-306 63,-95 158,-148 264,-148l686 0zm-1974 2132l0 0c422,-929 528,-1552 74,-1552 -454,0 -1056,697 -1446,1552 -401,855 -507,1552 -53,1552 454,0 929,-496 1425,-1552z"/>
 </g>
</svg>
