<?xml version="1.0" encoding="UTF-8" standalone="no"?>
<svg
   xmlns:dc="http://purl.org/dc/elements/1.1/"
   xmlns:cc="http://creativecommons.org/ns#"
   xmlns:rdf="http://www.w3.org/1999/02/22-rdf-syntax-ns#"
   xmlns:svg="http://www.w3.org/2000/svg"
   xmlns="http://www.w3.org/2000/svg"
   viewBox="0 0 756.07599 299.78"
   height="299.78"
   width="756.07599"
   xml:space="preserve"
   id="svg2"
   version="1.1"><metadata
     id="metadata8"><rdf:RDF><cc:Work
         rdf:about=""><dc:format>image/svg+xml</dc:format><dc:type
           rdf:resource="http://purl.org/dc/dcmitype/StillImage" /></cc:Work></rdf:RDF></metadata><defs
     id="defs6"><clipPath
       id="clipPath18"
       clipPathUnits="userSpaceOnUse"><path
         id="path16"
         d="M 0,224.835 H 567.057 V 0 H 0 Z" /></clipPath><clipPath
       id="clipPath34"
       clipPathUnits="userSpaceOnUse"><path
         id="path32"
         d="m 261.623,162.331 c -3.544,-31.18 18.861,-59.334 50.045,-62.879 v 0 c 31.183,-3.543 59.335,18.863 62.878,50.044 v 0 c 3.545,31.184 -18.86,59.335 -50.042,62.881 v 0 c -2.181,0.247 -4.344,0.368 -6.488,0.368 v 0 c -28.51,-0.002 -53.096,-21.412 -56.393,-50.414" /></clipPath><clipPath
       id="clipPath46"
       clipPathUnits="userSpaceOnUse"><path
         id="path44"
         d="M 267.313,156.494 H 330.9 V 58.5088 h -63.587 z" /></clipPath><clipPath
       id="clipPath62"
       clipPathUnits="userSpaceOnUse"><path
         id="path60"
         d="m 291.013,156.494 h 70.514 V 60.2881 h -70.514 z" /></clipPath><clipPath
       id="clipPath78"
       clipPathUnits="userSpaceOnUse"><path
         id="path76"
         d="m 317.663,156.494 h 68.002 V 77.6045 h -68.002 z" /></clipPath><clipPath
       id="clipPath94"
       clipPathUnits="userSpaceOnUse"><path
         id="path92"
         d="m 317.663,156.494 h 88.832 V 93.1826 h -88.832 z" /></clipPath><clipPath
       id="clipPath110"
       clipPathUnits="userSpaceOnUse"><path
         id="path108"
         d="m 317.663,177.719 h 99.062 V 111.5 h -99.062 z" /></clipPath><clipPath
       id="clipPath126"
       clipPathUnits="userSpaceOnUse"><path
         id="path124"
         d="m 317.663,207.193 h 93.256 V 136.5 h -93.256 z" /></clipPath><clipPath
       id="clipPath142"
       clipPathUnits="userSpaceOnUse"><path
         id="path140"
         d="M 317.663,228.996 H 390.09 V 156.494 H 317.663 Z" /></clipPath><clipPath
       id="clipPath158"
       clipPathUnits="userSpaceOnUse"><path
         id="path156"
         d="m 317.663,249.341 h 59.555 v -92.847 h -59.555 z" /></clipPath><clipPath
       id="clipPath174"
       clipPathUnits="userSpaceOnUse"><path
         id="path172"
         d="m 288.61,255.619 h 68.267 V 156.494 H 288.61 Z" /></clipPath><clipPath
       id="clipPath190"
       clipPathUnits="userSpaceOnUse"><path
         id="path188"
         d="m 260.615,245.857 h 70.238 v -89.363 h -70.238 z" /></clipPath><clipPath
       id="clipPath206"
       clipPathUnits="userSpaceOnUse"><path
         id="path204"
         d="m 239.5,225.406 h 78.163 V 156.494 H 239.5 Z" /></clipPath><clipPath
       id="clipPath222"
       clipPathUnits="userSpaceOnUse"><path
         id="path220"
         d="m 221.751,211.717 h 95.912 v -60.401 h -95.912 z" /></clipPath><clipPath
       id="clipPath238"
       clipPathUnits="userSpaceOnUse"><path
         id="path236"
         d="m 219.492,189.572 h 98.171 v -69.7 h -98.171 z" /></clipPath><clipPath
       id="clipPath254"
       clipPathUnits="userSpaceOnUse"><path
         id="path252"
         d="m 233.106,162.809 h 84.557 V 93.6621 h -84.557 z" /></clipPath><clipPath
       id="clipPath270"
       clipPathUnits="userSpaceOnUse"><path
         id="path268"
         d="m 251.218,156.494 h 66.445 V 72.5703 h -66.445 z" /></clipPath><clipPath
       id="clipPath286"
       clipPathUnits="userSpaceOnUse"><path
         id="path284"
         d="M 0,224.835 H 567.057 V 0 H 0 Z" /></clipPath></defs><g
     transform="matrix(1.3333333,0,0,-1.3333333,0,299.78)"
     id="g10"><g
       id="g12"><g
         clip-path="url(#clipPath18)"
         id="g14"><text
           id="text22"
           style="font-variant:normal;font-weight:normal;font-stretch:normal;font-size:100px;font-family:'Myriad Pro';-inkscape-font-specification:MyriadPro-Regular;writing-mode:lr-tb;fill:#383332;fill-opacity:1;fill-rule:nonzero;stroke:none"
           transform="matrix(1,0,0,-0.89,0.2246,13.7461)"><tspan
             id="tspan20"
             y="0"
             x="0 49.900002 112.8 150.10001 213">COLOR</tspan></text>
<text
           id="text26"
           style="font-variant:normal;font-weight:bold;font-stretch:normal;font-size:100px;font-family:'Myriad Pro';-inkscape-font-specification:MyriadPro-Bold;writing-mode:lr-tb;fill:#383332;fill-opacity:1;fill-rule:nonzero;stroke:none"
           transform="matrix(1,0,0,-0.89,261.0246,13.7461)"><tspan
             id="tspan24"
             y="0"
             x="0 46.700001 69.199997 132.2 195.8 243.2">FINDER</tspan></text>
</g></g><g
       id="g28"><g
         clip-path="url(#clipPath34)"
         id="g30"><g
           transform="translate(415.2324,155.1445)"
           id="g36"><path
             id="path38"
             style="fill:#ffffff;fill-opacity:1;fill-rule:nonzero;stroke:none"
             d="m 0,0 -12.787,15.196 7.834,16.12 c 1.532,3.155 0.217,6.953 -2.931,8.488 l -17.864,8.681 0.602,17.913 c 0.117,3.504 -2.634,6.444 -6.133,6.557 l -19.852,0.667 -6.735,16.61 c -1.318,3.249 -5.022,4.815 -8.272,3.497 l -18.403,-7.463 -12.91,12.431 c -2.527,2.435 -6.548,2.358 -8.979,-0.169 l -13.778,-14.304 -16.849,6.108 c -3.298,1.192 -6.938,-0.512 -8.135,-3.808 l -6.764,-18.672 -17.879,-1.274 c -3.498,-0.252 -6.132,-3.288 -5.881,-6.786 l 1.41,-19.811 -15.814,-8.433 c -3.092,-1.652 -4.263,-5.496 -2.612,-8.592 l 9.351,-17.52 -11.019,-14.142 c -2.155,-2.766 -1.658,-6.756 1.108,-8.909 l 15.666,-12.207 -4.312,-17.398 c -0.843,-3.402 1.229,-6.847 4.634,-7.691 l 19.279,-4.777 3.135,-17.648 c 0.613,-3.451 3.911,-5.752 7.36,-5.14 l 19.553,3.475 10.043,-14.843 c 1.97,-2.906 5.916,-3.664 8.821,-1.702 l 16.448,11.128 15.214,-9.479 c 2.976,-1.853 6.894,-0.94 8.749,2.035 l 10.501,16.858 17.749,-2.474 c 3.477,-0.486 6.684,1.941 7.167,5.415 l 2.735,19.67 17.226,4.965 c 3.362,0.97 5.31,4.49 4.336,7.859 l -5.496,19.082 13.717,11.541 C 1.915,-6.687 2.259,-2.683 0,0" /></g><g
           id="g40"><g
             id="g42" /><g
             id="g54"><g
               id="g52"
               clip-path="url(#clipPath46)"><g
                 id="g50"
                 transform="translate(291.9873,127.8672)"><path
                   id="path48"
                   style="fill:#f19c1f;fill-opacity:1;fill-rule:nonzero;stroke:none"
                   d="m 0,0 c 1.181,1.147 1.288,0.991 2.665,2.499 6.536,7.147 23.011,26.127 23.011,26.127 l -9.58,-34.017 c 0,0 -0.984,-2.567 -0.798,-4.425 0.188,-1.856 1.94,-4.333 1.94,-4.333 l 20.586,-30.43 c 1.962,-2.9 1.198,-6.848 -1.702,-8.813 l -21.99,-14.877 c -2.904,-1.961 -6.851,-1.204 -8.82,1.703 l -28.895,42.714 c -1.964,2.905 -1.206,6.853 1.693,8.819 l 19.168,12.964 c 0,0 1.534,0.923 2.722,2.069" /></g></g></g></g><g
           id="g56"><g
             id="g58" /><g
             id="g70"><g
               id="g68"
               clip-path="url(#clipPath62)"><g
                 id="g66"
                 transform="translate(305.8516,119.8979)"><path
                   id="path64"
                   style="fill:#fced40;fill-opacity:1;fill-rule:nonzero;stroke:none"
                   d="m 0,0 c 0.613,1.532 0.773,1.432 1.42,3.37 3.062,9.187 10.392,33.226 10.392,33.226 L 16.895,1.629 c 0,0 0.145,-2.75 1.066,-4.373 0.934,-1.62 3.541,-3.167 3.541,-3.167 l 31.183,-19.426 c 2.974,-1.855 3.882,-5.77 2.03,-8.748 L 40.679,-56.616 c -1.855,-2.974 -5.773,-3.887 -8.749,-2.035 l -43.777,27.273 c -2.975,1.855 -3.883,5.77 -2.031,8.748 l 12.235,19.634 c 0,0 1.027,1.47 1.643,2.996" /></g></g></g></g><g
           id="g72"><g
             id="g74" /><g
             id="g86"><g
               id="g84"
               clip-path="url(#clipPath78)"><g
                 id="g82"
                 transform="translate(321.7549,118.2568)"><path
                   id="path80"
                   style="fill:#e0de11;fill-opacity:1;fill-rule:nonzero;stroke:none"
                   d="m 0,0 c -0.059,1.65 0.128,1.623 -0.07,3.659 -0.941,9.637 -4.022,34.578 -4.022,34.578 L 14.774,8.357 c 0,0 1.253,-2.451 2.759,-3.552 1.505,-1.104 4.516,-1.46 4.516,-1.46 l 36.387,-5.061 c 3.472,-0.485 5.897,-3.691 5.413,-7.164 l -3.657,-26.296 c -0.482,-3.473 -3.689,-5.9 -7.167,-5.414 l -51.081,7.109 c -3.47,0.484 -5.9,3.688 -5.411,7.164 l 3.185,22.915 c 0,0 0.345,1.756 0.282,3.402" /></g></g></g></g><g
           id="g88"><g
             id="g90" /><g
             id="g102"><g
               id="g100"
               clip-path="url(#clipPath94)"><g
                 id="g98"
                 transform="translate(336.9551,123.2319)"><path
                   id="path96"
                   style="fill:#9cc133;fill-opacity:1;fill-rule:nonzero;stroke:none"
                   d="m 0,0 c -0.727,1.476 -0.543,1.533 -1.552,3.306 -4.779,8.426 -17.74,29.956 -17.74,29.956 L 10.099,13.64 c 0,0 2.141,-1.733 3.963,-2.123 1.825,-0.398 4.716,0.505 4.716,0.505 l 35.303,10.173 c 3.369,0.974 6.889,-0.971 7.86,-4.343 l 7.348,-25.508 c 0.975,-3.37 -0.974,-6.89 -4.336,-7.859 L 15.392,-29.8 c -3.366,-0.969 -6.884,0.97 -7.855,4.342 L 1.129,-3.229 c 0,0 -0.407,1.75 -1.129,3.229" /></g></g></g></g><g
           id="g104"><g
             id="g106" /><g
             id="g118"><g
               id="g116"
               clip-path="url(#clipPath110)"><g
                 id="g114"
                 transform="translate(348.8135,133.9536)"><path
                   id="path112"
                   style="fill:#52af74;fill-opacity:1;fill-rule:nonzero;stroke:none"
                   d="M 0,0 C -1.264,1.057 -1.118,1.18 -2.761,2.392 -10.556,8.143 -31.15,22.54 -31.15,22.54 L 3.675,16.571 c 0,0 2.66,-0.713 4.488,-0.332 1.831,0.38 4.109,2.383 4.109,2.383 l 28.107,23.652 c 2.68,2.26 6.686,1.911 8.945,-0.769 L 66.419,21.191 c 2.259,-2.683 1.915,-6.688 -0.767,-8.946 L 26.186,-20.963 c -2.681,-2.258 -6.689,-1.909 -8.945,0.772 L 2.343,-2.488 c 0,0 -1.074,1.435 -2.343,2.488" /></g></g></g></g><g
           id="g120"><g
             id="g122" /><g
             id="g134"><g
               id="g132"
               clip-path="url(#clipPath126)"><g
                 id="g130"
                 transform="translate(355.29,148.5747)"><path
                   id="path128"
                   style="fill:#39a69f;fill-opacity:1;fill-rule:nonzero;stroke:none"
                   d="m 0,0 c -1.585,0.451 -1.501,0.621 -3.497,1.059 -9.459,2.087 -34.13,6.86 -34.13,6.86 l 34.245,8.714 c 0,0 2.719,0.435 4.236,1.525 1.51,1.087 2.782,3.845 2.782,3.845 l 16.056,33.039 c 1.53,3.155 5.331,4.469 8.485,2.936 L 52.059,46.374 c 3.147,-1.535 4.462,-5.333 2.93,-8.488 L 32.442,-8.501 c -1.53,-3.151 -5.327,-4.468 -8.484,-2.932 L 3.149,-1.321 C 3.149,-1.321 1.587,-0.45 0,0" /></g></g></g></g><g
           id="g136"><g
             id="g138" /><g
             id="g150"><g
               id="g148"
               clip-path="url(#clipPath142)"><g
                 id="g146"
                 transform="translate(355.2578,164.5645)"><path
                   id="path144"
                   style="fill:#61afdf;fill-opacity:1;fill-rule:nonzero;stroke:none"
                   d="m 0,0 c -1.634,-0.234 -1.622,-0.043 -3.626,-0.455 -9.489,-1.942 -33.969,-7.616 -33.969,-7.616 l 27.741,21.892 c 0,0 2.31,1.501 3.25,3.111 0.936,1.614 0.976,4.646 0.976,4.646 l 1.232,36.717 c 0.117,3.503 3.052,6.249 6.557,6.133 l 26.534,-0.893 c 3.499,-0.113 6.25,-3.053 6.134,-6.556 L 33.1,5.431 C 32.977,1.929 30.044,-0.816 26.542,-0.7 L 3.417,0.078 C 3.417,0.078 1.635,0.235 0,0" /></g></g></g></g><g
           id="g152"><g
             id="g154" /><g
             id="g166"><g
               id="g164"
               clip-path="url(#clipPath158)"><g
                 id="g162"
                 transform="translate(348.7227,179.1592)"><path
                   id="path160"
                   style="fill:#4179b8;fill-opacity:1;fill-rule:nonzero;stroke:none"
                   d="m 0,0 c -1.393,-0.875 -1.463,-0.701 -3.123,-1.886 -7.881,-5.64 -27.937,-20.78 -27.937,-20.78 l 16.443,31.283 c 0,0 1.493,2.311 1.695,4.165 0.203,1.851 -0.995,4.641 -0.995,4.641 l -13.808,34.041 c -1.319,3.251 0.245,6.953 3.496,8.27 l 24.601,9.981 c 3.25,1.318 6.954,-0.249 8.272,-3.497 L 28.028,18.424 C 29.347,15.176 27.78,11.472 24.533,10.157 L 3.093,1.458 C 3.093,1.458 1.395,0.879 0,0" /></g></g></g></g><g
           id="g168"><g
             id="g170" /><g
             id="g182"><g
               id="g180"
               clip-path="url(#clipPath174)"><g
                 id="g178"
                 transform="translate(336.8213,189.835)"><path
                   id="path176"
                   style="fill:#20408b;fill-opacity:1;fill-rule:nonzero;stroke:none"
                   d="m 0,0 c -0.921,-1.369 -1.053,-1.24 -2.087,-2.999 -4.905,-8.351 -17.071,-30.342 -17.071,-30.342 l 2.296,35.266 c 0,0 0.426,2.718 -0.145,4.497 -0.568,1.775 -2.798,3.831 -2.798,3.831 l -26.462,25.484 c -2.525,2.434 -2.601,6.451 -0.169,8.979 l 18.417,19.121 c 2.431,2.527 6.453,2.604 8.979,0.17 L 18.112,28.231 c 2.524,-2.431 2.601,-6.455 0.166,-8.976 L 2.228,2.587 C 2.228,2.587 0.918,1.366 0,0" /></g></g></g></g><g
           id="g184"><g
             id="g186" /><g
             id="g198"><g
               id="g196"
               clip-path="url(#clipPath190)"><g
                 id="g194"
                 transform="translate(321.6035,194.7446)"><path
                   id="path192"
                   style="fill:#2a3465;fill-opacity:1;fill-rule:nonzero;stroke:none"
                   d="M 0,0 C -0.281,-1.623 -0.464,-1.558 -0.689,-3.587 -1.771,-13.212 -3.94,-38.251 -3.94,-38.251 l -12.249,33.149 c 0,0 -0.716,2.659 -1.958,4.052 -1.243,1.393 -4.117,2.364 -4.117,2.364 l -34.534,12.519 c -3.301,1.193 -5.005,4.833 -3.807,8.131 l 9.042,24.96 c 1.197,3.296 4.837,5 8.135,3.807 L 5.062,33.156 c 3.295,-1.192 5.001,-4.835 3.804,-8.132 L 0.982,3.272 C 0.982,3.272 0.28,1.627 0,0" /></g></g></g></g><g
           id="g200"><g
             id="g202" /><g
             id="g214"><g
               id="g212"
               clip-path="url(#clipPath206)"><g
                 id="g210"
                 transform="translate(305.7031,193.0415)"><path
                   id="path208"
                   style="fill:#273463;fill-opacity:1;fill-rule:nonzero;stroke:none"
                   d="M 0,0 C 0.402,-1.598 0.215,-1.61 0.832,-3.556 3.754,-12.792 11.96,-36.548 11.96,-36.548 l -24.672,25.308 c 0,0 -1.736,2.136 -3.437,2.9 -1.7,0.767 -4.722,0.486 -4.722,0.486 l -36.643,-2.613 c -3.501,-0.25 -6.534,2.381 -6.787,5.884 l -1.886,26.478 c -0.251,3.498 2.383,6.534 5.881,6.786 l 51.443,3.668 c 3.501,0.248 6.537,-2.384 6.783,-5.88 L -0.431,3.389 C -0.431,3.389 -0.404,1.6 0,0" /></g></g></g></g><g
           id="g216"><g
             id="g218" /><g
             id="g230"><g
               id="g228"
               clip-path="url(#clipPath222)"><g
                 id="g226"
                 transform="translate(291.8721,185.02)"><path
                   id="path224"
                   style="fill:#6e3286;fill-opacity:1;fill-rule:nonzero;stroke:none"
                   d="m 0,0 c 1.014,-1.295 0.853,-1.388 2.204,-2.916 6.428,-7.245 23.587,-25.61 23.587,-25.61 l -32.83,13.084 c 0,0 -2.455,1.247 -4.324,1.256 -1.866,0.005 -4.511,-1.478 -4.511,-1.478 l -32.411,-17.292 c -3.098,-1.65 -6.94,-0.48 -8.591,2.613 l -12.496,23.424 c -1.651,3.096 -0.48,6.94 2.612,8.591 l 45.508,24.277 c 3.092,1.649 6.938,0.481 8.592,-2.616 L -1.772,2.92 c 0,0 0.755,-1.627 1.772,-2.92" /></g></g></g></g><g
           id="g232"><g
             id="g234" /><g
             id="g246"><g
               id="g244"
               clip-path="url(#clipPath238)"><g
                 id="g242"
                 transform="translate(282.499,172.0674)"><path
                   id="path240"
                   style="fill:#bf313c;fill-opacity:1;fill-rule:nonzero;stroke:none"
                   d="m 0,0 c 1.453,-0.771 1.344,-0.922 3.201,-1.769 8.818,-4.003 31.963,-13.805 31.963,-13.805 l -35.319,-1.399 c 0,0 -2.742,0.14 -4.451,-0.613 -1.71,-0.75 -3.523,-3.183 -3.523,-3.183 l -22.579,-28.979 c -2.152,-2.767 -6.14,-3.262 -8.909,-1.106 l -20.942,16.316 c -2.765,2.153 -3.262,6.143 -1.108,8.91 l 31.698,40.686 c 2.156,2.764 6.145,3.261 8.907,1.107 L -2.809,1.943 c 0,0 1.352,-1.178 2.809,-1.943" /></g></g></g></g><g
           id="g248"><g
             id="g250" /><g
             id="g262"><g
               id="g260"
               clip-path="url(#clipPath254)"><g
                 id="g258"
                 transform="translate(279.207,156.4175)"><path
                   id="path256"
                   style="fill:#e12f31;fill-opacity:1;fill-rule:nonzero;stroke:none"
                   d="m 0,0 c 1.646,-0.111 1.599,-0.296 3.64,-0.309 9.689,-0.074 34.816,0.385 34.816,0.385 L 6.766,-15.566 c 0,0 -2.572,-0.99 -3.828,-2.37 -1.251,-1.379 -1.917,-4.342 -1.917,-4.342 l -8.842,-35.655 c -0.843,-3.403 -4.289,-5.478 -7.687,-4.635 l -25.77,6.384 c -3.406,0.844 -5.477,4.289 -4.635,7.691 l 12.409,50.06 c 0.84,3.408 4.285,5.48 7.688,4.636 L -3.359,0.637 c 0,0 1.711,-0.525 3.359,-0.637" /></g></g></g></g><g
           id="g264"><g
             id="g266" /><g
             id="g278"><g
               id="g276"
               clip-path="url(#clipPath270)"><g
                 id="g274"
                 transform="translate(282.5596,140.7852)"><path
                   id="path272"
                   style="fill:#e86a34;fill-opacity:1;fill-rule:nonzero;stroke:none"
                   d="m 0,0 c 1.554,0.567 1.584,0.38 3.456,1.197 8.876,3.872 31.648,14.511 31.648,14.511 L 12.514,-11.47 c 0,0 -1.945,-1.948 -2.53,-3.72 -0.582,-1.773 0.008,-4.748 0.008,-4.748 l 6.432,-36.17 c 0.616,-3.451 -1.687,-6.747 -5.144,-7.363 l -26.137,-4.645 c -3.449,-0.613 -6.747,1.688 -7.36,5.139 l -9.025,50.778 c -0.616,3.454 1.69,6.751 5.138,7.362 l 22.783,4.052 c 0,0 1.777,0.216 3.321,0.785" /></g></g></g></g></g></g><g
       id="g280"><g
         clip-path="url(#clipPath286)"
         id="g282"><g
           transform="translate(336.835,98.8447)"
           id="g288"><path
             id="path290"
             style="fill:none;stroke:#2e2e2e;stroke-width:10;stroke-linecap:butt;stroke-linejoin:miter;stroke-miterlimit:10;stroke-dasharray:none;stroke-opacity:1"
             d="m 0,0 c -31.519,-10.355 -65.465,6.801 -75.82,38.32 -10.355,31.519 6.801,65.465 38.321,75.82 31.518,10.355 65.464,-6.802 75.818,-38.32 C 48.675,44.3 31.519,10.356 0,0 Z" /></g><g
           transform="translate(183.0439,93.917)"
           id="g292"><path
             id="path294"
             style="fill:#2e2e2e;fill-opacity:1;fill-rule:nonzero;stroke:none"
             d="m 0,0 c -2.962,-0.974 -6.183,0.654 -7.156,3.617 l -6.917,21.053 c -0.973,2.963 0.654,6.183 3.616,7.156 l 61.905,20.339 c 2.963,0.973 6.183,-0.655 7.156,-3.617 l 6.917,-21.053 c 0.974,-2.962 -0.654,-6.183 -3.616,-7.156 z" /></g><g
           transform="translate(182.0977,93.6074)"
           id="g296"><path
             id="path298"
             style="fill:#2e2e2e;fill-opacity:1;fill-rule:nonzero;stroke:none"
             d="m 0,0 c -7.406,-2.434 -15.456,1.636 -17.89,9.041 l -1.608,4.895 c -2.433,7.406 1.636,15.456 9.041,17.889 l 45.748,15.03 c 7.406,2.434 15.456,-1.635 17.889,-9.041 l 1.609,-4.896 C 57.222,25.512 53.153,17.462 45.747,15.029 Z" /></g><g
           transform="translate(227.7847,117.4316)"
           id="g300"><path
             id="path302"
             style="fill:#2e2e2e;fill-opacity:1;fill-rule:nonzero;stroke:none"
             d="M 0,0 -5.228,15.913 31.111,27.852 36.339,11.939 Z" /></g><g
           transform="translate(171.0498,112.2695)"
           id="g304"><path
             id="path306"
             style="fill:#ffffff;fill-opacity:1;fill-rule:nonzero;stroke:none"
             d="M 0,0 C -0.776,0.873 -0.013,2.779 0.391,3.637 0.972,4.87 0.747,6.324 -0.506,7.058 -1.602,7.7 -3.346,7.394 -3.926,6.161 -5.408,3.014 -6.033,-0.727 -3.535,-3.535 -1.388,-5.949 2.135,-2.4 0,0" /></g></g></g></g></svg>