<?xml version="1.0" encoding="utf-8"?>
<!-- Generator: Adobe Illustrator 16.0.0, SVG Export Plug-In . SVG Version: 6.00 Build 0)  -->
<!DOCTYPE svg PUBLIC "-//W3C//DTD SVG 1.1//EN" "http://www.w3.org/Graphics/SVG/1.1/DTD/svg11.dtd">
<svg version="1.1" xmlns="http://www.w3.org/2000/svg" xmlns:xlink="http://www.w3.org/1999/xlink" x="0px" y="0px"
	 width="583.471px" height="236.237px" viewBox="0 0 583.471 236.237" enable-background="new 0 0 583.471 236.237"
	 xml:space="preserve">
<g id="Capa_1">
	<g>
		<path fill="#FFFFFF" d="M65.301,215.414c-3.2,1.424-9.601,2.848-17.801,2.848c-19.001,0-33.302-10.68-33.302-30.35
			c0-18.779,14.301-31.508,35.202-31.508c8.401,0,13.701,1.602,16.001,2.67l-2.1,6.32c-3.3-1.425-8-2.492-13.601-2.492
			c-15.801,0-26.302,8.988-26.302,24.742c0,14.686,9.5,24.121,25.901,24.121c5.301,0,10.701-0.979,14.201-2.492L65.301,215.414z"/>
		<path fill="#FFFFFF" d="M125.701,186.754c0,20.649-14.101,31.597-31.302,31.597c-17.801,0-30.302-12.283-30.302-30.439
			c0-19.047,13.301-31.508,31.302-31.508C113.8,156.404,125.701,168.954,125.701,186.754z M73.397,187.734
			c0,12.816,7.8,24.299,21.501,24.299c13.801,0,21.602-11.305,21.602-24.922c0-11.927-7-24.388-21.501-24.388
			C80.598,162.723,73.397,174.561,73.397,187.734z"/>
		<path fill="#FFFFFF" d="M130.997,157.382h8.7v53.492h28.802v6.498h-37.502V157.382z"/>
		<path fill="#FFFFFF" d="M225.9,186.754c0,20.649-14.101,31.597-31.302,31.597c-17.801,0-30.302-12.283-30.302-30.439
			c0-19.047,13.301-31.508,31.302-31.508C214,156.404,225.9,168.954,225.9,186.754z M173.597,187.734
			c0,12.816,7.8,24.299,21.501,24.299c13.801,0,21.602-11.305,21.602-24.922c0-11.927-7.001-24.388-21.502-24.388
			C180.797,162.723,173.597,174.561,173.597,187.734z"/>
		<path fill="#FFFFFF" d="M231.196,158.184c4.4-0.802,10.7-1.246,16.701-1.246c9.301,0,15.301,1.513,19.501,4.896
			c3.4,2.67,5.3,6.764,5.3,11.393c0,7.922-5.6,13.172-12.7,15.309v0.268c5.2,1.602,8.301,5.873,9.9,12.104
			c2.2,8.367,3.801,14.152,5.2,16.467h-9c-1.101-1.691-2.601-6.854-4.501-14.33c-2-8.277-5.6-11.393-13.5-11.66h-8.201v25.99h-8.7
			V158.184z M239.896,185.508h8.9c9.301,0,15.201-4.539,15.201-11.393c0-7.743-6.3-11.126-15.501-11.214
			c-4.2,0-7.2,0.355-8.601,0.711V185.508z"/>
		<path fill="#FFFFFF" d="M277.996,157.382h41.202v11.127h-25.901v13.706h24.201v11.036h-24.201v24.121h-15.301V157.382z"/>
		<path fill="#FFFFFF" d="M339.996,157.382v59.99h-15.301v-59.99H339.996z"/>
		<path fill="#FFFFFF" d="M347.194,217.373v-59.99h17.801l14.001,21.984c4,6.32,8.001,13.797,11.001,20.561h0.3
			c-1-7.922-1.3-16.021-1.3-25.01v-17.535h14v59.99h-16l-14.401-23.142c-4-6.408-8.4-14.151-11.701-21.183l-0.3,0.088
			c0.4,7.922,0.601,16.377,0.601,26.168v18.068H347.194z"/>
		<path fill="#FFFFFF" d="M410.193,158.184c5.601-0.802,12.9-1.246,20.601-1.246c12.801,0,21.102,2.048,27.603,6.408
			c7,4.628,11.4,12.016,11.4,22.607c0,11.481-4.7,19.403-11.201,24.298c-7.1,5.252-17.9,7.744-31.102,7.744
			c-7.9,0-13.501-0.445-17.301-0.891V158.184z M425.494,207.136c1.3,0.268,3.4,0.268,5.3,0.268
			c13.802,0.088,22.802-6.676,22.802-21.006c0.101-12.46-8.101-19.047-21.201-19.047c-3.4,0-5.601,0.268-6.9,0.535V207.136z"/>
		<path fill="#FFFFFF" d="M513.896,192.005h-24.802v14.24h27.702v11.127h-43.003v-59.99h41.603v11.127h-26.302v12.46h24.802V192.005
			z"/>
		<path fill="#FFFFFF" d="M521.192,158.184c4.9-0.712,12.2-1.246,20.301-1.246c10.001,0,17.001,1.335,21.802,4.718
			c4,2.848,6.2,7.031,6.2,12.549c0,7.654-6.101,12.906-11.9,14.775v0.267c4.7,1.69,7.3,5.696,9,11.215
			c2.101,6.765,4.2,14.597,5.501,16.911h-15.602c-1.1-1.691-2.7-6.586-4.7-13.975c-1.8-7.477-4.7-9.523-10.9-9.612h-4.601v23.587
			h-15.101V158.184z M536.293,183.996h6.001c7.6,0,12.101-3.383,12.101-8.634c0-5.519-4.2-8.277-11.201-8.366
			c-3.7,0-5.8,0.268-6.9,0.445V183.996z"/>
	</g>
	<g>
		<defs>
			<circle id="SVGID_1_" cx="328.458" cy="75.205" r="56.825"/>
		</defs>
		<clipPath id="SVGID_2_">
			<use xlink:href="#SVGID_1_"  overflow="visible"/>
		</clipPath>
		<g clip-path="url(#SVGID_2_)">
			<path fill="#FFFFFF" d="M425.605,75.974l-12.787-15.196l7.834-16.12c1.532-3.155,0.217-6.953-2.931-8.488l-17.864-8.681
				l0.603-17.914c0.116-3.504-2.635-6.443-6.134-6.556l-19.852-0.667l-6.735-16.611c-1.317-3.249-5.021-4.815-8.271-3.497
				l-18.403,7.463l-12.91-12.431c-2.526-2.435-6.548-2.357-8.979,0.169L305.397-8.25l-16.849-6.108
				c-3.299-1.193-6.938,0.511-8.135,3.808l-6.765,18.672l-17.88,1.274c-3.498,0.251-6.131,3.288-5.88,6.786l1.41,19.811
				l-15.814,8.433c-3.093,1.652-4.263,5.496-2.612,8.592l9.352,17.52l-11.02,14.142c-2.154,2.766-1.657,6.757,1.107,8.909
				l15.666,12.207l-4.312,17.397c-0.843,3.402,1.229,6.848,4.635,7.691l19.278,4.777l3.136,17.648
				c0.612,3.451,3.911,5.752,7.359,5.139l19.554-3.475l10.043,14.844c1.97,2.906,5.916,3.664,8.82,1.701l16.448-11.127l15.214,9.479
				c2.977,1.854,6.895,0.939,8.749-2.035l10.501-16.857l17.749,2.473c3.478,0.486,6.685-1.939,7.167-5.414l2.735-19.669
				l17.226-4.965c3.362-0.97,5.311-4.49,4.336-7.859l-5.496-19.082l13.718-11.541C427.521,82.662,427.864,78.657,425.605,75.974z"/>
			<g>
				<path fill="#DB9600" d="M302.36,103.251c1.181-1.147,1.288-0.991,2.665-2.499c6.536-7.148,23.011-26.128,23.011-26.128
					l-9.58,34.017c0,0-0.983,2.567-0.798,4.426c0.188,1.856,1.94,4.333,1.94,4.333l20.586,30.429c1.962,2.9,1.198,6.848-1.702,8.812
					l-21.99,14.877c-2.904,1.963-6.851,1.205-8.82-1.701l-28.895-42.714c-1.965-2.904-1.206-6.853,1.693-8.819l19.168-12.963
					C299.639,105.321,301.172,104.398,302.36,103.251z"/>
				<path fill="#F7EC45" d="M316.225,111.221c0.613-1.532,0.773-1.432,1.42-3.37c3.062-9.188,10.392-33.226,10.392-33.226
					l5.083,34.966c0,0,0.146,2.75,1.066,4.373c0.934,1.621,3.541,3.167,3.541,3.167l31.183,19.427
					c2.975,1.854,3.883,5.769,2.03,8.748l-14.036,22.529c-1.854,2.975-5.772,3.889-8.749,2.035l-43.776-27.271
					c-2.976-1.855-3.884-5.771-2.031-8.749l12.235-19.634C314.582,114.216,315.608,112.747,316.225,111.221z"/>
				<path fill="#DEDC1C" d="M332.128,112.862c-0.059-1.65,0.128-1.623-0.07-3.659c-0.94-9.637-4.021-34.578-4.021-34.578
					l18.866,29.879c0,0,1.253,2.452,2.759,3.553c1.505,1.104,4.516,1.459,4.516,1.459l36.387,5.061
					c3.473,0.485,5.897,3.691,5.413,7.165l-3.656,26.294c-0.482,3.475-3.689,5.9-7.167,5.414l-51.081-7.107
					c-3.471-0.484-5.9-3.689-5.411-7.164l3.185-22.916C331.846,116.264,332.191,114.507,332.128,112.862z"/>
				<path fill="#A3BD31" d="M347.328,107.887c-0.727-1.476-0.543-1.533-1.552-3.306c-4.779-8.427-17.74-29.956-17.74-29.956
					l29.391,19.622c0,0,2.142,1.733,3.963,2.123c1.825,0.398,4.717-0.505,4.717-0.505l35.303-10.172
					c3.369-0.975,6.889,0.971,7.86,4.343l7.348,25.508c0.975,3.37-0.974,6.89-4.336,7.859l-49.562,14.285
					c-3.365,0.969-6.884-0.971-7.854-4.344l-6.408-22.229C348.457,111.115,348.05,109.366,347.328,107.887z"/>
				<path fill="#6EAA6F" d="M359.187,97.165c-1.264-1.057-1.118-1.18-2.761-2.392c-7.795-5.751-28.39-20.148-28.39-20.148
					l34.825,5.969c0,0,2.66,0.713,4.488,0.332c1.831-0.38,4.109-2.383,4.109-2.383l28.106-23.653c2.68-2.259,6.687-1.91,8.945,0.77
					l17.095,20.314c2.259,2.683,1.915,6.688-0.767,8.946l-39.467,33.208c-2.681,2.258-6.688,1.909-8.944-0.771l-14.898-17.703
					C361.529,99.653,360.455,98.218,359.187,97.165z"/>
				<path fill="#5FA199" d="M365.663,82.544c-1.585-0.451-1.501-0.621-3.497-1.059c-9.459-2.087-34.13-6.86-34.13-6.86l34.245-8.714
					c0,0,2.719-0.435,4.235-1.525c1.511-1.086,2.782-3.845,2.782-3.845l16.057-33.04c1.529-3.154,5.331-4.468,8.484-2.936
					l23.882,11.604c3.147,1.535,4.463,5.333,2.931,8.488l-22.547,46.387c-1.53,3.151-5.327,4.468-8.484,2.932l-20.809-10.112
					C368.812,83.865,367.25,82.994,365.663,82.544z"/>
				<path fill="#76AADB" d="M365.631,66.554c-1.634,0.234-1.622,0.043-3.626,0.455c-9.489,1.943-33.969,7.616-33.969,7.616
					l27.741-21.892c0,0,2.31-1.501,3.25-3.111c0.936-1.614,0.976-4.646,0.976-4.646l1.231-36.717
					c0.117-3.503,3.053-6.25,6.558-6.133l26.534,0.893c3.499,0.113,6.25,3.052,6.134,6.556l-1.729,51.548
					c-0.123,3.501-3.056,6.247-6.558,6.13l-23.125-0.777C369.048,66.477,367.266,66.319,365.631,66.554z"/>
				<path fill="#4A72B2" d="M359.096,51.959c-1.393,0.875-1.463,0.701-3.123,1.886c-7.881,5.64-27.937,20.779-27.937,20.779
					l16.442-31.282c0,0,1.493-2.312,1.695-4.165c0.203-1.851-0.995-4.641-0.995-4.641L331.371,0.495
					c-1.319-3.25,0.244-6.952,3.495-8.27l24.602-9.981c3.25-1.318,6.954,0.249,8.271,3.497l19.385,47.794
					c1.318,3.248-0.248,6.952-3.495,8.267l-21.44,8.699C362.188,50.502,360.49,51.081,359.096,51.959z"/>
				<path fill="#002E82" d="M347.194,41.284c-0.921,1.369-1.053,1.24-2.087,2.999c-4.905,8.352-17.071,30.343-17.071,30.343
					l2.296-35.266c0,0,0.427-2.718-0.145-4.497c-0.568-1.775-2.798-3.831-2.798-3.831L300.928,5.546
					c-2.525-2.434-2.602-6.45-0.169-8.979l18.417-19.122c2.431-2.527,6.452-2.604,8.979-0.169l37.152,35.776
					c2.523,2.431,2.601,6.455,0.166,8.976l-16.051,16.667C349.422,38.696,348.112,39.917,347.194,41.284z"/>
				<path fill="#001A5A" d="M331.977,36.374c-0.281,1.623-0.464,1.558-0.689,3.587c-1.081,9.625-3.251,34.664-3.251,34.664
					l-12.249-33.149c0,0-0.716-2.659-1.958-4.052c-1.242-1.393-4.116-2.364-4.116-2.364l-34.535-12.519
					c-3.301-1.193-5.004-4.833-3.807-8.131l9.043-24.959c1.196-3.296,4.836-5,8.135-3.808l48.49,17.575
					c3.295,1.192,5.001,4.835,3.804,8.132l-7.884,21.752C332.959,33.102,332.257,34.747,331.977,36.374z"/>
				<path fill="#001A57" d="M316.076,38.077c0.402,1.598,0.215,1.61,0.832,3.556c2.922,9.235,11.128,32.992,11.128,32.992
					l-24.672-25.308c0,0-1.736-2.136-3.438-2.9c-1.699-0.767-4.722-0.486-4.722-0.486l-36.643,2.613
					c-3.501,0.25-6.534-2.381-6.787-5.883l-1.886-26.479c-0.251-3.498,2.382-6.534,5.88-6.786l51.443-3.668
					c3.501-0.249,6.537,2.384,6.783,5.879l1.649,23.08C315.646,34.688,315.672,36.478,316.076,38.077z"/>
				<path fill="#58167D" d="M302.245,46.099c1.014,1.295,0.853,1.388,2.204,2.916c6.428,7.245,23.587,25.611,23.587,25.611
					l-32.83-13.084c0,0-2.455-1.247-4.324-1.256c-1.865-0.005-4.511,1.478-4.511,1.478l-32.41,17.292
					c-3.099,1.65-6.94,0.48-8.592-2.613l-12.496-23.424c-1.65-3.096-0.48-6.94,2.612-8.592l45.508-24.276
					c3.092-1.649,6.938-0.481,8.592,2.616l10.888,20.413C300.473,43.179,301.229,44.805,302.245,46.099z"/>
				<path fill="#A01127" d="M292.872,59.051c1.453,0.771,1.344,0.922,3.201,1.769c8.817,4.004,31.963,13.805,31.963,13.805
					l-35.319,1.399c0,0-2.742-0.139-4.451,0.613c-1.71,0.75-3.523,3.183-3.523,3.183l-22.578,28.979
					c-2.152,2.767-6.14,3.263-8.908,1.107l-20.943-16.317c-2.765-2.152-3.262-6.143-1.107-8.909l31.698-40.687
					c2.155-2.764,6.145-3.261,8.907-1.107l18.253,14.222C290.063,57.108,291.415,58.286,292.872,59.051z"/>
				<path fill="#BF0411" d="M289.58,74.701c1.646,0.111,1.599,0.296,3.64,0.309c9.689,0.075,34.816-0.385,34.816-0.385
					l-31.69,15.642c0,0-2.571,0.99-3.828,2.37c-1.251,1.379-1.917,4.342-1.917,4.342l-8.842,35.656
					c-0.843,3.402-4.288,5.477-7.687,4.635l-25.771-6.385c-3.405-0.844-5.478-4.289-4.635-7.691l12.409-50.06
					c0.84-3.408,4.285-5.479,7.688-4.635l22.457,5.565C286.221,74.064,287.932,74.589,289.58,74.701z"/>
				<path fill="#CB6120" d="M292.933,90.333c1.554-0.567,1.584-0.38,3.456-1.197c8.876-3.872,31.647-14.511,31.647-14.511
					l-22.59,27.179c0,0-1.944,1.948-2.529,3.72c-0.582,1.773,0.008,4.748,0.008,4.748l6.432,36.169
					c0.616,3.451-1.687,6.748-5.144,7.363l-26.138,4.645c-3.448,0.613-6.747-1.688-7.359-5.139l-9.024-50.778
					c-0.617-3.454,1.689-6.75,5.138-7.361l22.782-4.052C289.611,91.119,291.389,90.902,292.933,90.333z"/>
			</g>
		</g>
	</g>
	<circle fill="none" stroke="#FFFFFF" stroke-width="10" stroke-miterlimit="10" cx="328.458" cy="75.204" r="60.071"/>
	<g>
		<path fill="#FFFFFF" d="M193.417,137.201c-2.962,0.974-6.183-0.654-7.156-3.616l-6.917-21.054
			c-0.973-2.962,0.654-6.183,3.617-7.156l61.905-20.338c2.963-0.973,6.183,0.654,7.156,3.617l6.917,21.053
			c0.974,2.962-0.654,6.183-3.616,7.156L193.417,137.201z"/>
	</g>
	<g>
		<path fill="#FFFFFF" d="M192.471,137.512c-7.406,2.434-15.456-1.636-17.89-9.041l-1.608-4.896
			c-2.434-7.406,1.635-15.456,9.041-17.889l45.748-15.031c7.406-2.433,15.456,1.635,17.889,9.042l1.609,4.896
			c2.433,7.406-1.636,15.456-9.041,17.889L192.471,137.512z"/>
	</g>
	
		<rect x="245.338" y="80.636" transform="matrix(0.3121 0.95 -0.95 0.3121 269.2931 -172.4154)" fill="#FFFFFF" width="16.75" height="38.25"/>
	<g>
		<path fill="#FFFFFF" d="M179.655,120.617c-1.333-1.333-1.333-4,0-6.667"/>
		<g>
			<path fill="#FFFFFF" d="M181.423,118.849c-0.776-0.873-0.013-2.779,0.391-3.637c0.581-1.233,0.355-2.687-0.897-3.42
				c-1.096-0.642-2.84-0.336-3.42,0.897c-1.481,3.146-2.107,6.888,0.391,9.696C180.035,124.798,183.558,121.249,181.423,118.849
				L181.423,118.849z"/>
		</g>
	</g>
	<g>
		<g>
			<path fill="#010002" d="M181.841,119.85c-0.776-0.873-0.013-2.779,0.391-3.638c0.581-1.232,0.355-2.687-0.897-3.42
				c-1.096-0.643-2.84-0.336-3.42,0.896c-1.481,3.146-2.107,6.889,0.391,9.696C180.454,125.799,183.977,122.249,181.841,119.85
				L181.841,119.85z"/>
		</g>
	</g>
</g>
<g id="Capa_2">
</g>
<g id="Capa_3">
</g>
</svg>
