<?xml version="1.0" encoding="UTF-8" standalone="no"?>
<svg
   xmlns:dc="http://purl.org/dc/elements/1.1/"
   xmlns:cc="http://creativecommons.org/ns#"
   xmlns:rdf="http://www.w3.org/1999/02/22-rdf-syntax-ns#"
   xmlns:svg="http://www.w3.org/2000/svg"
   xmlns="http://www.w3.org/2000/svg"
   viewBox="0 0 2208 2208"
   height="2208"
   width="2208"
   xml:space="preserve"
   id="svg2"
   version="1.1"><metadata
     id="metadata8"><rdf:RDF><cc:Work
         rdf:about=""><dc:format>image/svg+xml</dc:format><dc:type
           rdf:resource="http://purl.org/dc/dcmitype/StillImage" /></cc:Work></rdf:RDF></metadata><defs
     id="defs6"><clipPath
       id="clipPath18"
       clipPathUnits="userSpaceOnUse"><path
         id="path16"
         d="M 0,1656 H 1656 V 0 H 0 Z" /></clipPath><clipPath
       id="clipPath30"
       clipPathUnits="userSpaceOnUse"><path
         id="path28"
         d="M 459.362,832.85 H 1004.86 V 18.7578 H 459.362 Z" /></clipPath><clipPath
       id="clipPath46"
       clipPathUnits="userSpaceOnUse"><path
         id="path44"
         d="M 665.482,832.85 H 1246.09 V 69.0605 H 665.482 Z" /></clipPath><clipPath
       id="clipPath62"
       clipPathUnits="userSpaceOnUse"><path
         id="path60"
         d="M 825.274,832.85 H 1423.54 V 242.457 H 825.274 Z" /></clipPath><clipPath
       id="clipPath78"
       clipPathUnits="userSpaceOnUse"><path
         id="path76"
         d="M 825.274,832.85 H 1590.26 V 346.321 H 825.274 Z" /></clipPath><clipPath
       id="clipPath94"
       clipPathUnits="userSpaceOnUse"><path
         id="path92"
         d="M 825.274,1076.58 H 1639.2 V 514.694 H 825.274 Z" /></clipPath><clipPath
       id="clipPath110"
       clipPathUnits="userSpaceOnUse"><path
         id="path108"
         d="M 825.274,1305.47 H 1556.4 V 729.044 H 825.274 Z" /></clipPath><clipPath
       id="clipPath126"
       clipPathUnits="userSpaceOnUse"><path
         id="path124"
         d="M 825.274,1478.98 H 1389.92 V 832.85 H 825.274 Z" /></clipPath><clipPath
       id="clipPath142"
       clipPathUnits="userSpaceOnUse"><path
         id="path140"
         d="m 777.35,1622.38 h 498.44 V 832.85 H 777.35 Z" /></clipPath><clipPath
       id="clipPath158"
       clipPathUnits="userSpaceOnUse"><path
         id="path156"
         d="M 519.478,1638.27 H 1092.8 V 832.85 H 519.478 Z" /></clipPath><clipPath
       id="clipPath174"
       clipPathUnits="userSpaceOnUse"><path
         id="path172"
         d="M 305.475,1523.93 H 872.554 V 832.85 H 305.475 Z" /></clipPath><clipPath
       id="clipPath190"
       clipPathUnits="userSpaceOnUse"><path
         id="path188"
         d="M 132.313,1376.76 H 825.274 V 832.85 H 132.313 Z" /></clipPath><clipPath
       id="clipPath206"
       clipPathUnits="userSpaceOnUse"><path
         id="path204"
         d="M 19.2979,1243.04 H 825.274 V 718.768 H 19.2979 Z" /></clipPath><clipPath
       id="clipPath222"
       clipPathUnits="userSpaceOnUse"><path
         id="path220"
         d="M 36.6094,1047.4 H 825.274 V 467.85 H 36.6094 Z" /></clipPath><clipPath
       id="clipPath238"
       clipPathUnits="userSpaceOnUse"><path
         id="path236"
         d="M 181.266,832.85 H 825.274 V 271.043 H 181.266 Z" /></clipPath><clipPath
       id="clipPath254"
       clipPathUnits="userSpaceOnUse"><path
         id="path252"
         d="M 307.467,832.85 H 825.274 V 100.154 H 307.467 Z" /></clipPath></defs><g
     transform="matrix(1.3333333,0,0,-1.3333333,0,2208)"
     id="g10"><g
       id="g12"><g
         clip-path="url(#clipPath18)"
         id="g14"><g
           transform="translate(1622.8877,912.3555)"
           id="g20"><path
             id="path22"
             style="fill:#ffffff;fill-opacity:1;fill-rule:nonzero;stroke:none"
             d="m 0,0 -118.467,112.178 48.993,138.842 c 9.586,27.165 -4.684,56.946 -31.805,66.551 l -153.859,54.275 -11.71,146.779 c -2.292,28.701 -27.463,50.141 -56.14,47.824 l -162.64,-12.978 -70.391,129.326 c -13.76,25.293 -45.457,34.645 -70.736,20.873 l -143.308,-77.99 -116.898,89.486 c -22.884,17.526 -55.629,13.158 -73.134,-9.716 l -99.176,-129.536 -143.191,34.223 c -28.027,6.678 -56.171,-10.605 -62.871,-38.62 l -37.885,-158.675 -144.749,-26.994 c -28.315,-5.295 -47.001,-32.522 -41.714,-60.832 l 29.912,-160.387 -121.257,-83.513 c -23.711,-16.348 -29.698,-48.805 -13.348,-72.544 l 92.568,-134.328 -76.809,-125.642 c -15.029,-24.575 -7.272,-56.684 17.301,-71.698 l 139.19,-85.099 -19.058,-145.998 c -3.708,-28.551 16.405,-54.743 44.974,-58.475 l 161.775,-21.107 41.967,-141.134 c 8.198,-27.599 37.262,-43.313 64.857,-35.124 l 156.366,46.51 95.748,-111.831 c 18.753,-21.896 51.663,-24.435 73.558,-5.703 l 123.923,106.075 132.974,-63.252 c 26.017,-12.368 57.132,-1.286 69.509,24.73 l 70.078,147.327 147.159,-3.704 c 28.84,-0.74 52.758,22.027 53.471,50.826 l 4.088,163.092 135.977,56.497 c 26.562,11.035 39.196,41.579 28.119,68.179 L -99.212,-180.643 2.026,-73.718 C 21.838,-52.797 20.935,-19.785 0,0" /></g><g
           id="g24"><g
             id="g26" /><g
             id="g38"><g
               id="g36"
               clip-path="url(#clipPath30)"><g
                 id="g34"
                 transform="translate(642.2715,575.3789)"><path
                   id="path32"
                   style="fill:#f89734;fill-opacity:1;fill-rule:nonzero;stroke:none"
                   d="m 0,0 c 8.568,10.47 9.602,9.287 19.437,22.881 46.702,64.398 163.566,234.59 163.566,234.59 L 136.371,-29.051 c 0,0 -5.652,-21.885 -2.408,-36.872 3.252,-14.973 19.864,-33.565 19.864,-33.565 l 196.239,-229.264 c 18.731,-21.855 16.149,-54.781 -5.703,-73.514 L 178.68,-544.08 c -21.896,-18.732 -54.806,-16.193 -73.559,5.703 l -275.488,321.82 c -18.732,21.893 -16.186,54.825 5.654,73.563 L -20.292,-19.41 c 0,0 11.654,8.951 20.292,19.41" /></g></g></g></g><g
           id="g40"><g
             id="g42" /><g
             id="g54"><g
               id="g52"
               clip-path="url(#clipPath46)"><g
                 id="g50"
                 transform="translate(762.8154,523.2061)"><path
                   id="path48"
                   style="fill:#f9ed42;fill-opacity:1;fill-rule:nonzero;stroke:none"
                   d="m 0,0 c 3.576,13.071 4.996,12.403 8.47,28.817 16.465,77.831 53.989,280.827 53.989,280.827 L 136.386,28.968 c 0,0 3.744,-22.322 12.784,-34.697 9.094,-12.368 31.823,-22.575 31.823,-22.575 l 272.529,-129.627 c 26.018,-12.371 37.046,-43.488 24.7,-69.514 l -93.681,-196.909 c -12.377,-26.016 -43.492,-37.098 -69.509,-24.731 l -382.595,181.977 c -26.02,12.388 -37.061,43.498 -24.714,69.525 l 81.657,171.604 c 0,0 7.021,12.944 10.62,25.979" /></g></g></g></g><g
           id="g56"><g
             id="g58" /><g
             id="g70"><g
               id="g68"
               clip-path="url(#clipPath62)"><g
                 id="g66"
                 transform="translate(894.1494,524.5703)"><path
                   id="path64"
                   style="fill:#d8e037;fill-opacity:1;fill-rule:nonzero;stroke:none"
                   d="m 0,0 c -2.018,13.412 -0.463,13.354 -3.969,29.789 -16.616,77.795 -64.906,278.49 -64.906,278.49 L 112.838,81.912 c 0,0 12.483,-18.849 25.818,-26.435 13.294,-7.61 38.202,-7.73 38.202,-7.73 L 478.552,40.2 c 28.783,-0.741 51.541,-24.657 50.821,-53.457 l -5.458,-218.013 c -0.713,-28.798 -24.631,-51.566 -53.471,-50.826 l -423.505,10.609 c -28.779,0.737 -51.581,24.635 -50.827,53.454 l 4.735,189.997 c 0,0 1.191,14.659 -0.847,28.036" /></g></g></g></g><g
           id="g72"><g
             id="g74" /><g
             id="g86"><g
               id="g84"
               clip-path="url(#clipPath78)"><g
                 id="g82"
                 transform="translate(1013.5771,579.2695)"><path
                   id="path80"
                   style="fill:#90c84b;fill-opacity:1;fill-rule:nonzero;stroke:none"
                   d="M 0,0 C -7.274,11.379 -5.829,12.006 -15.724,25.548 -62.547,89.88 -188.303,253.58 -188.303,253.58 L 69.796,120.709 c 0,0 19.083,-12.162 34.312,-13.659 15.27,-1.558 38.034,8.499 38.034,8.499 l 278.703,115.779 c 26.584,11.078 57.125,-1.537 68.179,-28.154 L 572.672,1.799 c 11.077,-26.6 -1.558,-57.144 -28.119,-68.179 L 153.302,-228.945 c -26.592,-11.043 -57.09,1.54 -68.156,28.16 L 12.222,-25.297 c 0,0 -4.921,13.885 -12.222,25.297" /></g></g></g></g><g
           id="g88"><g
             id="g90" /><g
             id="g102"><g
               id="g100"
               clip-path="url(#clipPath94)"><g
                 id="g98"
                 transform="translate(1100.4375,677.7793)"><path
                   id="path96"
                   style="fill:#3cb879;fill-opacity:1;fill-rule:nonzero;stroke:none"
                   d="M 0,0 C -11.298,7.457 -10.233,8.596 -24.753,16.963 -93.702,56.67 -275.163,155.07 -275.163,155.07 L 14.621,138.664 c 0,0 22.37,-3.346 36.944,1.456 14.59,4.799 31.313,23.265 31.313,23.265 l 207.473,219.124 c 19.801,20.928 52.815,21.801 73.727,2.014 L 522.45,234.576 c 20.935,-19.785 21.838,-52.797 2.027,-73.718 L 233.174,-146.797 c -19.797,-20.924 -52.826,-21.789 -73.721,-2.01 L 21.451,-18.135 C 21.451,-18.135 11.339,-7.414 0,0" /></g></g></g></g><g
           id="g104"><g
             id="g106" /><g
             id="g118"><g
               id="g116"
               clip-path="url(#clipPath110)"><g
                 id="g114"
                 transform="translate(1139.7422,803.1377)"><path
                   id="path112"
                   style="fill:#1baaa1;fill-opacity:1;fill-rule:nonzero;stroke:none"
                   d="m 0,0 c -13.368,2.201 -12.841,3.668 -29.525,5.39 -79.136,8.252 -284.943,24.322 -284.943,24.322 l 271.425,102.894 c 0,0 21.789,6.073 33.144,16.381 11.346,10.274 19.141,33.967 19.141,33.967 L 109.65,467.518 c 9.572,27.165 39.381,41.411 66.541,31.836 l 205.675,-72.565 c 27.121,-9.605 41.392,-39.387 31.806,-66.552 L 272.686,-39.29 c -9.569,-27.147 -39.332,-41.412 -66.52,-31.811 L 26.927,-7.867 c 0,0 -13.563,5.649 -26.927,7.867" /></g></g></g></g><g
           id="g120"><g
             id="g122" /><g
             id="g134"><g
               id="g132"
               clip-path="url(#clipPath126)"><g
                 id="g130"
                 transform="translate(1124.6426,933.6016)"><path
                   id="path128"
                   style="fill:#3bade2;fill-opacity:1;fill-rule:nonzero;stroke:none"
                   d="m 0,0 c -13.119,-3.42 -13.22,-1.854 -29.178,-7.072 -75.645,-24.661 -270.19,-93.68 -270.19,-93.68 l 206.116,204.416 c 0,0 17.455,14.393 23.645,28.416 6.137,14.035 3.648,38.828 3.648,38.828 l -24.002,300.821 c -2.301,28.705 19.109,53.84 47.82,56.14 l 217.398,17.334 c 28.678,2.317 53.848,-19.123 56.14,-47.824 L 265.111,75.035 C 267.362,46.346 245.972,21.21 217.278,18.914 L 27.801,3.803 C 27.801,3.803 13.109,3.434 0,0" /></g></g></g></g><g
           id="g136"><g
             id="g138" /><g
             id="g150"><g
               id="g148"
               clip-path="url(#clipPath142)"><g
                 id="g146"
                 transform="translate(1057.75,1046.6699)"><path
                   id="path144"
                   style="fill:#337abe;fill-opacity:1;fill-rule:nonzero;stroke:none"
                   d="m 0,0 c -10.538,-8.441 -11.282,-7.08 -23.734,-18.301 -59.1,-53.337 -208.742,-195.519 -208.742,-195.519 l 105.173,270.584 c 0,0 10.059,20.257 9.998,35.568 -0.075,15.302 -12.434,36.956 -12.434,36.956 l -144.301,265.04 c -13.772,25.311 -4.443,56.965 20.872,70.739 l 191.551,104.288 c 25.279,13.773 56.975,4.42 70.736,-20.873 L 211.68,176.37 c 13.772,-25.285 4.432,-56.968 -20.858,-70.722 L 23.9,14.762 C 23.9,14.762 10.581,8.463 0,0" /></g></g></g></g><g
           id="g152"><g
             id="g154" /><g
             id="g166"><g
               id="g164"
               clip-path="url(#clipPath158)"><g
                 id="g162"
                 transform="translate(950.7217,1122.7637)"><path
                   id="path160"
                   style="fill:#3c4694;fill-opacity:1;fill-rule:nonzero;stroke:none"
                   d="M 0,0 C -6.255,-12.031 -7.446,-11.098 -14.268,-26.41 -46.554,-99.125 -125.447,-289.914 -125.447,-289.914 L -139.42,0.058 c 0,0 0.945,22.588 -5.343,36.573 -6.295,13.962 -26.386,28.676 -26.386,28.676 l -239.63,183.453 c -22.886,17.527 -27.234,50.242 -9.71,73.131 l 132.56,173.151 c 17.505,22.874 50.25,27.242 73.134,9.716 l 336.41,-257.535 c 22.873,-17.504 27.239,-50.268 9.702,-73.108 L 15.774,23.18 C 15.774,23.18 6.201,12.002 0,0" /></g></g></g></g><g
           id="g168"><g
             id="g170" /><g
             id="g182"><g
               id="g180"
               clip-path="url(#clipPath174)"><g
                 id="g178"
                 transform="translate(821.9385,1148.7129)"><path
                   id="path176"
                   style="fill:#393768;fill-opacity:1;fill-rule:nonzero;stroke:none"
                   d="m 0,0 c -0.782,-13.506 -2.317,-13.148 -2.278,-29.912 0.094,-79.568 5.614,-285.951 5.614,-285.951 l -130.724,259.198 c 0,0 -8.304,21.038 -19.747,31.263 -11.434,10.211 -35.774,15.476 -35.774,15.476 l -293.512,70.143 c -28.027,6.67 -45.303,34.805 -38.6,62.828 l 50.637,212.114 c 6.7,28.016 34.844,45.299 62.871,38.62 L 10.563,275.324 C 38.567,268.648 55.88,240.491 49.172,212.477 L 5.007,27.621 C 5.007,27.621 0.793,13.531 0,0" /></g></g></g></g><g
           id="g184"><g
             id="g186" /><g
             id="g198"><g
               id="g196"
               clip-path="url(#clipPath190)"><g
                 id="g194"
                 transform="translate(693.7529,1120.0625)"><path
                   id="path192"
                   style="fill:#2e2f5e;fill-opacity:1;fill-rule:nonzero;stroke:none"
                   d="m 0,0 c 4.767,-12.666 3.259,-12.947 10.088,-28.264 32.429,-72.655 121.433,-258.949 121.433,-258.949 l -224.862,183.678 c 0,0 -16.135,15.819 -30.743,20.486 -14.578,4.668 -38.983,-0.416 -38.983,-0.416 l -296.642,-55.318 c -28.354,-5.295 -55.554,13.371 -60.862,41.714 l -39.975,214.378 c -5.287,28.31 13.399,55.537 41.714,60.832 l 416.47,77.67 c 28.351,5.273 55.582,-13.4 60.834,-41.701 L -6.655,27.268 c 0,0 1.892,-14.59 6.655,-27.268" /></g></g></g></g><g
           id="g200"><g
             id="g202" /><g
             id="g214"><g
               id="g212"
               clip-path="url(#clipPath206)"><g
                 id="g210"
                 transform="translate(588.2871,1041.7578)"><path
                   id="path208"
                   style="fill:#6d3d94;fill-opacity:1;fill-rule:nonzero;stroke:none"
                   d="m 0,0 c 9.508,-9.634 8.258,-10.536 20.732,-21.746 59.175,-53.168 216.255,-187.162 216.255,-187.162 l -280.092,76.339 c 0,0 -21.21,7.908 -36.458,6.24 -15.233,-1.687 -35.443,-16.239 -35.443,-16.239 l -248.499,-171.211 c -23.743,-16.341 -56.208,-10.36 -72.546,13.353 l -123.722,179.596 c -16.35,23.738 -10.364,56.195 13.347,72.544 l 348.905,240.362 c 23.709,16.331 56.193,10.358 72.552,-13.378 L -17.156,22.191 C -17.156,22.191 -9.477,9.619 0,0" /></g></g></g></g><g
           id="g216"><g
             id="g218" /><g
             id="g230"><g
               id="g228"
               clip-path="url(#clipPath222)"><g
                 id="g226"
                 transform="translate(523.8203,927.3477)"><path
                   id="path224"
                   style="fill:#c1343e;fill-opacity:1;fill-rule:nonzero;stroke:none"
                   d="m 0,0 c 12.576,-4.953 11.816,-6.281 27.772,-11.467 75.676,-24.504 273.682,-83.031 273.682,-83.031 L 14.491,-138.682 c 0,0 -22.536,-1.406 -35.782,-9.13 -13.258,-7.711 -25.801,-29.245 -25.801,-29.245 l -157.397,-257.476 c -14.993,-24.584 -47.089,-32.324 -71.689,-17.301 l -186.069,113.746 c -24.572,15.014 -32.329,47.123 -17.301,71.697 L -258.58,95.096 c 15.031,24.566 47.129,32.324 71.677,17.302 L -24.725,13.257 C -24.725,13.257 -12.6,4.896 0,0" /></g></g></g></g><g
           id="g232"><g
             id="g234" /><g
             id="g246"><g
               id="g244"
               clip-path="url(#clipPath238)"><g
                 id="g242"
                 transform="translate(511.4609,796.5586)"><path
                   id="path240"
                   style="fill:#ee3338;fill-opacity:1;fill-rule:nonzero;stroke:none"
                   d="m 0,0 c 13.53,0.621 13.336,-0.937 30,0.85 79.147,8.382 283.813,35.441 283.813,35.441 L 69.667,-120.775 c 0,0 -20.055,-10.469 -29.038,-22.891 -8.932,-12.422 -11.62,-37.227 -11.62,-37.227 l -39.077,-299.221 c -3.734,-28.556 -29.916,-48.681 -58.456,-44.958 l -216.257,28.201 c -28.57,3.732 -48.682,29.924 -44.974,58.475 l 54.843,420.106 c 3.711,28.588 29.902,48.703 58.457,44.959 L -28.006,2.084 c 0,0 14.469,-2.708 28.006,-2.084" /></g></g></g></g><g
           id="g248"><g
             id="g250" /><g
             id="g262"><g
               id="g260"
               clip-path="url(#clipPath254)"><g
                 id="g258"
                 transform="translate(553.3389,672.0723)"><path
                   id="path256"
                   style="fill:#f1623b;fill-opacity:1;fill-rule:nonzero;stroke:none"
                   d="m 0,0 c 12.143,6.068 12.57,4.573 27.083,12.977 68.864,39.832 244.853,147.8 244.853,147.8 L 112.763,-82.012 c 0,0 -14.048,-17.699 -17.188,-32.705 -3.109,-15.01 4.472,-38.744 4.472,-38.744 l 86.042,-289.248 c 8.232,-27.603 -7.5,-56.641 -35.133,-64.861 l -209.017,-62.18 c -27.594,-8.188 -56.658,7.525 -64.856,35.124 l -120.775,406.075 c -8.221,27.629 7.53,56.668 35.126,64.858 L -26.39,-9.487 c 0,0 14.313,3.415 26.39,9.487" /></g></g></g></g><g
           transform="translate(1117.5654,1148.6797)"
           id="g264"><path
             id="path266"
             style="fill:#ffffff;fill-opacity:1;fill-rule:nonzero;stroke:none"
             d="M 0,0 C -20.474,-24.1 -40.956,-63.857 -60.233,-100.018 -80.734,-139.798 -137.359,-257.876 -180.742,-355.5 40.981,-355.5 133.761,-53.004 0,0 m -203.641,-406.096 c -87.965,-177.148 -203.651,-274.732 -407.295,-274.732 -138.582,0 -233.784,79.506 -233.784,195.211 0,283.18 445.866,339.802 445.866,106.025 0,-79.527 -73.508,-154.23 -178.355,-154.23 -20.466,0 -18.063,20.489 -4.812,25.288 87.969,27.73 109.659,219.337 -6.036,219.337 -148.21,0 -212.077,-325.369 3.622,-325.369 79.536,0 140.987,44.579 204.858,153.035 24.096,40.988 96.392,194.036 150.64,315.716 30.125,69.889 71.086,137.386 114.467,177.129 -138.57,27.735 -297.644,-39.743 -297.644,-142.162 0,-26.523 12.052,-49.418 30.135,-54.235 56.619,-16.875 81.934,46.987 63.874,85.556 -8.472,19.271 10.832,32.514 25.282,19.271 78.351,-72.276 0,-210.859 -131.324,-189.176 -178.372,30.106 -140.998,327.759 257.864,327.759 32.544,0 71.079,-4.819 103.625,-9.635 98.833,73.511 216.917,68.672 266.312,19.265 C 218.119,73.508 201.252,53.02 183.156,62.633 143.415,84.338 84.385,85.546 37.368,42.171 326.576,-57.844 171.131,-438.625 -203.641,-406.096" /></g></g></g></g></svg>